**ABCDEFGHIJKLMNOPQRSTUVWXYZabcdefghijklmnopqrstuvwxyz**************************
**PARASOLID !"#$%&'()*+,-./:;<=>?@[\]^_`{|}~0123456789**************************
**PART1;
MC=unknown;
MC_MODEL=unknown;
MC_ID=unknown;
OS=unknown;
OS_RELEASE=unknown;
FRU=Parasolid Version 11.0, build 150,  7-15-1999;
APPL=SolidWorks 99-1999207;
SITE=;
USER=unknown;
FORMAT=text;
GUISE=transmit;
KEY=ENG157;
FILE=ENG157.x_t;
DATE=Mon Nov 26 11:41:48 2001;
**PART2;
SCH=SCH_1100150_11004;
USFLD_SIZE=0;
**PART3;
**END_OF_HEADER*****************************************************************
T51 : TRANSMIT FILE created by modeller version 110015017 SCH_1100150_110040 12
 1 125 0 2 0 0 0 0 1e3 1e-8 0 3 0 1 0 1 1 4 5 6 7 8 9 10 70 2 0 1 0 0 4 1 20 4 1
1 11 1 T13 4 90 0 1 0 12 0 0 13 0 50 5 89 0 12 14 0 0 +0 0 2.54 1 0 0 0 0 -1 30
 6 85 0 9 15 0 0 +0 0 2.54 0 0 -1 29 7 23 0 10 16 0 0 .0127 2.54 19 8 24 0 1 13
 0 17 V16 9 73 0 ?18 0 19 6 0 0 1 18 10 22 0 20 0 21 7 ?1 17 20 0 22 23 24 10 25
 26 0 27 +18 21 20 0 24 10 28 16 ?1 17 24 0 22 20 29 21 30 31 0 32 +18 28 18 0 2
9 21 33 34 ?1 29 16 21 0 21 34 7 .0127 .0127 2.54 29 34 19 0 28 35 16 .0127 1734
723475976805e-33 2.54 29 35 17 0 33 36 34 0 0 2.54 18 33 16 0 37 28 38 35 ?1 29
 36 66 0 38 39 35 0 .0127 0 18 38 57 0 40 33 41 36 ?1 29 39 67 0 41 42 36 .0127
 .0127 0 18 41 58 0 43 38 44 39 ?1 29 42 68 0 44 45 39 .0127 1734723475976805e-3
3 0 18 44 59 0 46 41 47 42 ?1 29 45 69 0 47 0 42 0 0 0 18 47 60 0 48 44 0 45 ?1
 17 48 0 49 50 51 47 46 52 0 18 -15 49 40 0 50 53 0 17 50 0 49 54 48 38 55 56 0
 0 -17 51 0 49 48 54 44 43 57 0 0 -17 46 0 58 59 18 44 48 52 0 60 +16 52 49 0 ?4
6 57 56 61 0 0 1 17 18 0 58 46 37 47 62 9 0 55 +15 58 78 0 46 63 0 17 37 0 58 18
 59 33 29 64 0 23 -17 62 0 65 66 55 33 18 9 0 0 -17 55 0 65 62 67 47 50 56 0 0 +
15 65 80 0 55 12 0 17 67 0 65 55 66 38 27 68 0 50 +16 56 53 0 ?55 52 0 69 0 0 1
 30 69 65 0 56 0 61 0 +0 0 0 0 -1 0 30 61 64 0 52 69 70 0 +0 0 0 1 1365923996832
132e-31 0 30 70 63 0 57 61 71 0 +.0127 1734723475976805e-33 0 0 1 0 16 57 45 0 ?
43 72 52 70 0 0 1 30 71 62 0 72 70 73 0 +0 .0127 0 -1 0 0 16 72 41 0 ?40 74 57 7
1 0 0 1 30 73 5 0 74 71 75 0 +0 0 2.54 0 -1 0 16 74 4 0 ?23 64 72 73 0 0 1 30 75
 8 0 64 73 76 0 +0 0 2.54 1 1365923996832132e-31 0 16 64 7 0 ?29 31 74 75 0 0 1
 30 76 11 0 31 75 77 0 +.0127 1734723475976805e-33 2.54 0 1 0 16 31 10 0 ?24 26
 64 76 0 0 1 30 77 14 0 26 76 78 0 +0 .0127 2.54 -1 0 0 16 26 13 0 ?20 68 31 77
 0 0 1 30 78 82 0 68 77 79 0 +0 .0127 2.54 0 0 -1 16 68 70 0 ?67 80 26 78 0 0 1
 30 79 83 0 80 78 15 0 +.0127 .0127 2.54 0 0 -1 16 80 71 0 ?81 19 68 79 0 0 1 30
 15 84 0 19 79 6 0 +.0127 1734723475976805e-33 2.54 0 0 -1 16 19 72 0 ?60 9 80 1
5 0 0 1 17 60 0 82 43 30 44 59 19 0 51 +15 82 76 0 43 83 0 17 43 0 82 32 60 41 5
1 57 0 81 +17 30 0 82 60 32 28 24 31 0 0 -17 59 0 58 37 46 28 60 19 0 30 -17 32
 0 82 30 43 21 81 80 0 25 -17 81 0 84 40 25 41 32 80 0 54 +17 25 0 84 81 27 21 2
0 26 0 0 -15 84 74 0 40 85 0 17 27 0 84 25 40 10 67 68 0 66 -17 40 0 84 27 81 38
 54 72 0 67 +17 66 0 65 67 62 10 23 74 0 0 -17 23 0 22 29 20 33 66 74 0 62 +15 2
2 3 0 23 86 0 17 29 0 22 24 23 28 37 64 0 59 +14 86 1 87 ?53 85 22 4 88 -0 0 53
 85 17 81 1 87 124 89 86 0 0 90 91 92 14 53 39 91 ?0 86 49 4 93 +0 0 0 86 17 14
 85 75 90 ?86 83 84 4 94 -0 0 86 83 17 50 88 2 0 86 93 94 0 +0 .0127 2.54 0 0 -1
 -1 0 0 13 17 25 0 0 0 0 0 0 8 12 14 12 81 95 ?63 0 65 4 5 -0 0 63 0 17 81 1 95
 120 89 12 0 0 0 96 97 14 63 79 96 ?83 12 58 4 14 -0 0 83 12 17 81 1 96 121 89 6
3 0 0 95 98 99 14 83 77 98 ?85 63 82 4 100 -0 0 85 63 17 50 14 88 0 63 100 5 0 +
0 0 2.54 -136592399683213e-30 1 0 -1 -1365923996832132e-31 0 50 100 87 0 83 94 1
4 0 +.0127 1734723475976805e-33 2.54 -1 0 0 0 0 1 50 94 86 0 85 88 100 0 +0 .012
7 2.54 0 -1 0 0 0 -1 81 1 98 122 89 83 0 0 96 90 101 80 1 89 0 102 8001 0 0 0 0
 3 5 0 0 FFFFTFTFFFFFFF2 81 1 90 123 89 85 0 0 98 87 103 83 3 101 .7529411764705
88 .752941176470588 .752941176470588 83 3 103 .752941176470588 .752941176470588
 .752941176470588 79 15 102 SDL/TYSA_COLOUR83 3 99 .752941176470588 .75294117647
0588 .752941176470588 83 3 97 .752941176470588 .752941176470588 .752941176470588
 50 93 61 0 53 0 88 0 +0 .0127 0 0 0 -1 -1 0 0 81 1 91 125 89 53 0 0 87 0 104 83
 3 104 .752941176470588 .752941176470588 .752941176470588 83 3 92 .7529411764705
88 .752941176470588 .752941176470588 17 54 0 49 51 50 41 40 72 0 0 -19 13 91 0 1
 0 8 4 S74 20 11 1 0 91 0 0 0 0 0 0 0 0 0 0 0 0 0 0 0 0 0 0 0 1 0
