**ABCDEFGHIJKLMNOPQRSTUVWXYZabcdefghijklmnopqrstuvwxyz**************************
**PARASOLID !"#$%&'()*+,-./:;<=>?@[\]^_`{|}~0123456789**************************
**PART1;
MC=x86;
MC_MODEL=x86 Family 6 Model 3 Stepping 4, GenuineIntel;
MC_ID=unknown;
OS=Windows_NT;
OS_RELEASE=unknown;
FRU=Parasolid Version 10.0, build 211, 10-16-1998;
APPL=SolidWorks 98Plus-1998293;
SITE=;
USER=unknown;
FORMAT=text;
GUISE=transmit;
KEY=HSEC;
FILE=HSEC.x_t;
DATE=Wed Dec 23 09:41:54 1998;
**PART2;
SCH=SCH_1000211_10004;
USFLD_SIZE=0;
**PART3;
**END_OF_HEADER*****************************************************************
T51 : TRANSMIT FILE created by modeller version 100021117 SCH_1000211_100040 10
 1 6 0 0 0 0 0 0 0 1e3 1e-8 0 0 0 1 0 1 2 11 2 5 0 1 3 4 1 5 0 5 0 12 3 117 6 7
 0 0 0 0 1e3 1e-8 2 8 0 1 0 1 1 9 10 11 12 13 14 15 100 4 6 2 0 0 1 0 0 0 1 0 0
 0 1 -971445146547012e-31 0 .33 1 1 ?11 5 3 0 1 3 16 1 17 2 17 2 100 16 4 5 0 0
 1 2636785530864285e-31 -2101593308484715e-47 -3433562374547175e-48 174963799595
9505e-31 1 2636785530864285e-31 -1 1749637995959505e-31 -90205620750794e-30 .135
 .33 1 3 ?11 17 1 0 1 3 18 1 0 5 0 5 100 18 2 17 0 0 1 0 0 0 1 0 0 0 1 0 0 0 1 0
 ?81 1 6 117 19 3 0 0 0 0 20 70 7 0 3 0 0 4 2 20 4 21 21 1 T13 9 25 0 3 0 22 0 0
 23 0 50 10 91 0 24 25 0 0 +0 0 .03 0 1 0 0 0 1 30 11 87 0 14 26 0 0 +0 0 .03 0
 0 -1 29 12 23 0 15 27 0 0 0 .03 19 13 37 0 3 23 0 28 V16 14 81 0 ?29 0 30 11 0
 0 3 18 15 22 0 31 0 32 12 ?3 17 31 33 34 35 15 29 14 0 36 -18 32 20 0 37 15 38
 27 ?3 17 37 39 40 41 32 42 30 0 43 -18 38 18 0 44 32 45 46 ?3 29 27 21 0 32 46
 12 .1 0 .03 29 46 19 0 38 47 27 .1 .3 .03 29 47 17 0 45 48 46 0 .3 .03 18 45 16
 0 49 38 50 47 ?3 29 48 70 0 50 51 47 0 0 0 18 50 55 0 29 45 52 48 ?3 29 51 71 0
 52 53 48 .1 0 0 18 52 58 0 42 50 54 51 ?3 29 53 72 0 54 55 51 .1 .3 0 18 54 57
 0 56 52 57 53 ?3 29 55 73 0 57 0 53 0 .3 0 18 57 56 0 58 54 0 55 ?3 17 58 33 35
 34 57 49 59 0 60 +15 33 82 0 31 22 0 17 35 33 31 58 50 60 61 0 62 -17 34 33 58
 31 45 36 63 0 64 +17 49 65 66 67 45 58 59 0 34 -16 59 74 0 ?58 68 69 70 0 0 3 1
7 60 71 72 62 57 35 61 0 67 +15 71 62 0 60 73 0 17 72 71 74 60 54 67 75 0 76 -17
 62 71 60 74 50 41 77 0 0 -16 61 47 0 ?60 75 0 78 0 0 3 17 67 65 49 56 57 72 75
 0 0 +15 65 34 0 66 79 0 17 56 65 67 66 54 44 68 0 72 +16 75 43 0 ?67 80 61 81 0
 0 3 16 80 51 0 ?74 77 75 82 0 0 3 30 81 68 0 75 78 82 0 +.1 .3 0 -1 0 0 30 78 6
9 0 61 0 81 0 +0 0 0 0 1 0 30 82 67 0 80 81 83 0 +.1 .3 0 -462592926927149e-31 -
1 0 30 83 66 0 77 82 84 0 +0 0 0 1 0 0 16 77 39 0 ?41 63 80 83 0 0 3 30 84 5 0 6
3 83 85 0 +0 0 .03 0 1 0 16 63 4 0 ?34 86 77 84 0 0 3 30 85 8 0 86 84 87 0 +.1 .
3 .03 -1 0 0 16 86 7 0 ?64 88 63 85 0 0 3 30 87 11 0 88 85 89 0 +.1 .3 .03 -4625
92926927149e-31 -1 0 16 88 10 0 ?43 69 86 87 0 0 3 30 89 14 0 69 87 70 0 +0 0 .0
3 1 0 0 16 69 13 0 ?90 59 88 89 0 0 3 30 70 84 0 59 89 91 0 +0 .3 .03 0 0 -1 30
 91 85 0 68 70 26 0 +.1 .3 .03 0 0 -1 16 68 75 0 ?56 30 59 91 0 0 3 30 26 86 0 3
0 91 11 0 +.1 0 .03 0 0 -1 16 30 78 0 ?42 14 68 26 0 0 3 17 42 92 76 43 52 37 30
 0 74 +15 92 76 0 44 93 0 17 76 92 44 42 54 74 80 0 0 -17 43 92 42 44 32 94 88 0
 90 +17 74 71 62 72 52 76 80 0 41 +17 41 39 37 29 52 62 77 0 0 +15 39 79 0 37 24
 0 17 29 39 41 40 50 31 14 0 35 +17 40 39 29 37 15 90 69 0 0 -17 90 95 94 36 32
 40 69 0 0 +15 95 3 0 36 96 0 17 94 95 64 90 38 43 88 0 0 -17 36 95 90 64 15 34
 63 0 40 -17 64 95 36 94 45 66 86 0 0 +17 66 65 56 49 38 64 86 0 94 -14 96 1 97
 ?73 79 95 9 98 +0 0 79 93 28 81 1 97 115 99 96 0 0 100 101 102 14 73 61 101 ?0
 96 71 9 103 -0 0 0 79 28 14 79 35 100 ?96 93 65 9 104 -0 0 73 96 28 50 98 2 0 9
6 103 105 0 +0 .3 .03 0 0 1 1 0 0 14 93 77 106 ?79 24 92 9 25 +0 0 96 24 28 13 2
8 36 0 0 0 0 0 0 13 22 14 22 83 107 ?24 0 33 9 105 +0 0 24 0 28 81 1 107 111 99
 22 0 0 0 108 109 14 24 80 108 ?93 22 39 9 10 -0 0 93 22 28 50 105 88 0 22 98 10
4 0 +0 0 .03 -1 0 0 0 0 1 50 104 89 0 79 105 25 0 +.1 .3 .03 0 -1 0 0 0 -1 50 25
 90 0 93 104 10 0 +.1 .3 .03 1 -462592926927149e-31 0 462592926927149e-31 1 0 81
 1 108 112 99 24 0 0 107 106 110 80 1 99 0 111 8001 0 0 0 0 3 5 0 0 FFFFTFTFFFFF
F2 81 1 106 113 99 93 0 0 108 100 112 83 3 110 .752941176470588 .752941176470588
 .752941176470588 81 1 100 114 99 79 0 0 106 97 113 83 3 112 .752941176470588 .7
52941176470588 .752941176470588 83 3 113 .752941176470588 .752941176470588 .7529
41176470588 79 15 111 SDL/TYSA_COLOUR83 3 109 .752941176470588 .752941176470588
 .752941176470588 50 103 65 0 73 0 98 0 +0 .3 0 0 0 1 1 0 0 81 1 101 116 99 73 0
 0 97 0 114 83 3 114 .752941176470588 .752941176470588 .752941176470588 83 3 102
 .752941176470588 .752941176470588 .752941176470588 17 44 92 43 76 38 56 68 0 66
 -19 23 24 0 3 0 13 9 S74 20 21 2 0 101 6 0 0 0 0 0 0 0 0 0 0 0 0 0 0 0 0 0 0 80
 1 19 115 116 8017 0 0 0 0 0 0 0 0 TTTTTTTTTTTTT3 84 7 20 rectbar79 13 116 SDL/T
YSA_NAME1 0
