**ABCDEFGHIJKLMNOPQRSTUVWXYZabcdefghijklmnopqrstuvwxyz**************************
**PARASOLID !"#$%&'()*+,-./:;<=>?@[\]^_`{|}~0123456789**************************
**PART1;
MC=unknown;
MC_MODEL=unknown;
MC_ID=unknown;
OS=Windows;
OS_RELEASE=unknown;
FRU=Parasolid Version 16.1, build 159, 11/18/2004;
APPL=ANSYS DesignModeler;
SITE=Canonsburg PA;
USER=unknown;
FORMAT=text;
GUISE=transmit;
KEY=longbar_sat_m;
FILE=longbar_sat_m.x_t;
DATE=01/31/05 13:50:47;
**PART2;
SCH=SCH_1601159_16100;
USFLD_SIZE=0;
**PART3;
**END_OF_HEADER*****************************************************************
T51 : TRANSMIT FILE created by modeller version 160115917 SCH_1500000_150030 12
 1 141 2 3 0 0 0 0 1e3 1e-8 0 0 0 1 0 1 1 4 5 6 7 8 9 10 81 2 2 111 11 1 12 0 13
 0 14 0 70 3 0 4 T1 0 0 6 20 1 15 15 13 4 36 0 1 0 16 0 0 17 0 50 5 90 0 18 19 0
 0 +0 0 0 0 0 -1 .707106781186548 .707106781186548 0 30 6 84 0 20 21 0 0 +0 0 0
 0 1 0 29 7 72 0 22 23 0 0 2 0 19 8 2 0 1 17 0 24 V16 9 13 25 ?26 0 27 28 0 0 1
 18 10 4 29 30 0 31 32 ?1 81 3 29 38 33 10 0 0 0 34 35 36 0 17 30 37 38 26 39 10
 40 41 0 42 -18 31 6 43 44 10 45 46 ?1 29 32 65 0 10 0 47 2 0 20 29 47 66 0 48 3
2 46 2 0 0 18 48 5 34 39 45 49 47 ?1 29 46 67 0 31 47 50 0 0 20 29 50 68 0 45 46
 51 0 0 0 18 45 7 52 53 31 48 50 ?1 29 51 69 0 49 50 54 2 2 20 18 49 8 55 56 48
 57 51 ?1 29 54 70 0 57 51 23 2 2 0 18 57 9 58 59 49 60 54 ?1 29 23 71 0 60 54 7
 0 2 20 18 60 10 61 62 57 22 23 ?1 81 3 61 44 33 60 0 0 58 63 64 65 0 17 62 66 6
7 68 69 60 70 71 0 72 -18 22 11 63 69 60 0 7 ?1 81 3 63 45 33 22 0 0 61 73 74 75
 0 17 69 76 67 62 77 22 78 79 0 70 -81 6 76 131 80 69 0 0 81 82 0 0 0 83 84 85 1
5 67 32 0 62 86 0 17 77 0 67 69 68 57 56 87 0 78 +17 78 0 88 89 90 57 69 79 0 0
 +16 79 21 81 ?78 20 91 92 0 0 1 17 70 0 93 94 95 22 62 71 0 90 +15 93 33 0 95 9
6 0 17 94 97 93 44 70 45 90 20 0 0 -17 95 0 93 70 44 60 98 99 0 0 +16 71 19 100
 ?70 99 101 102 0 0 1 17 90 0 88 78 53 22 94 20 0 0 +15 88 35 0 53 18 0 17 53 0
 88 90 89 45 39 101 0 103 +16 20 23 104 ?90 101 79 6 0 0 1 81 6 104 134 80 20 10
5 0 106 97 107 108 109 110 111 112 16 101 15 113 ?53 71 20 114 0 0 1 81 6 113 11
8 80 101 115 0 116 117 118 119 120 121 122 123 30 114 76 0 101 124 125 0 +2 0 0
 -1 0 0 30 124 75 0 27 28 114 0 +0 0 20 0 0 -1 30 125 77 0 87 114 126 0 +2 2 20
 0 0 -1 16 87 16 127 ?77 128 99 125 0 0 1 30 126 78 0 129 125 130 0 +2 2 20 0 -1
 0 16 129 17 131 ?132 27 41 126 0 0 1 30 130 79 0 91 126 102 0 +2 2 0 0 -1 0 16
 91 18 133 ?89 79 0 130 0 0 1 30 102 80 0 71 130 134 0 +0 2 20 0 0 -1 30 134 81
 0 128 102 92 0 +0 2 20 1 0 0 16 128 20 135 ?68 41 87 134 0 0 1 30 92 82 0 79 13
4 21 0 +0 2 0 1 0 0 30 21 83 0 99 92 6 0 +0 0 20 0 1 0 16 99 22 82 ?95 87 71 21
 0 0 1 81 6 82 132 80 99 136 0 76 106 137 138 139 140 141 142 80 6 80 143 144 80
31 1 1 1 1 1 1 1 1 0 FFFFFFTFFFFFFT2 2 2 2 1 1 81 2 136 104 11 99 145 82 146 147
 148 149 81 6 106 133 80 98 0 0 82 104 0 0 0 150 151 152 83 6 137 0 0 20 0 2 20
 83 2 138 0 2 83 2 139 0 0 83 4 140 0 0 1.414213562373094 1.414213562373094 82 1
 141 22550 82 1 142 27 17 98 106 153 42 72 31 95 99 0 0 -83 4 150 0 0 1.41421356
2373094 -1.414213562373094 82 1 151 22553 82 1 152 28 15 153 34 0 42 154 0 17 42
 155 153 156 98 10 26 9 0 132 -17 72 157 153 98 156 60 68 128 0 95 -81 6 157 129
 80 72 0 0 135 81 0 0 0 158 159 160 17 156 161 153 72 42 49 132 129 0 68 -17 68
 0 67 77 62 49 72 128 0 0 +81 6 161 123 80 156 0 0 131 133 0 0 0 162 163 164 17
 132 0 165 40 56 10 156 129 0 0 +15 165 31 0 56 166 0 17 40 0 165 59 132 48 30 4
1 0 89 +17 56 167 165 132 59 49 77 87 0 156 -81 6 167 121 80 56 0 0 127 131 0 0
 0 168 169 170 17 59 171 165 56 40 57 89 91 0 77 -81 6 171 125 80 59 0 0 133 100
 0 0 0 172 173 174 17 89 0 88 53 78 48 59 91 0 0 +81 6 133 124 80 91 13 0 161 17
1 175 176 177 178 179 180 81 6 100 126 80 71 147 0 171 66 181 182 183 184 185 18
6 83 4 172 -14.14213562373094 -14.14213562373094 -15.55634918610405 -12.72792206
135786 82 1 173 22553 82 1 174 25 81 2 147 105 11 71 187 100 136 115 188 189 81
 6 66 127 80 62 0 0 100 135 0 0 0 190 191 192 83 6 181 0 2 20 0 2 35527136788005
e-28 83 2 182 0 20 83 2 183 0 0 83 4 184 1.414213562373094 1.414213562373094 -12
.72792206135786 15.55634918610405 82 1 185 22550 82 1 186 27 81 6 135 128 80 128
 193 0 66 157 194 195 196 197 198 199 83 4 190 0 0 -14.14213562373094 14.1421356
2373094 82 1 191 22553 82 1 192 26 81 2 193 102 11 128 200 135 201 146 202 203 8
3 6 194 0 2 20 2 2 20 83 2 195 0 2 83 2 196 0 0 83 4 197 0 0 1.414213562373094 1
.414213562373094 82 1 198 22550 82 1 199 26 80 2 11 204 205 9000 0 0 0 0 3 6 0 0
 0 FFTFTFTTFFFFTF3 1 81 3 200 54 33 128 0 193 187 206 207 208 0 81 2 201 101 11
 41 73 209 210 193 211 212 81 2 146 103 11 87 213 127 193 136 214 215 84 7 202 F
50.E1682 1 203 70 81 3 213 50 33 87 0 146 216 217 218 219 0 81 6 127 120 80 87 1
46 0 117 167 220 221 222 223 224 225 84 7 214 F50.E1282 1 215 66 81 6 117 119 80
 39 0 0 113 127 0 0 0 226 227 228 83 6 220 2 2 20 2 2 35527136788005e-28 83 2 22
1 0 20 83 2 222 0 0 83 4 223 1.414213562373094 1.414213562373094 -12.72792206135
786 15.55634918610405 82 1 224 22550 82 1 225 26 17 39 117 38 30 103 48 53 101 0
 40 -83 4 226 -14.14213562373094 -14.14213562373094 -15.55634918610405 -12.72792
206135786 82 1 227 22553 82 1 228 24 15 38 30 0 30 16 0 17 103 0 38 39 26 45 44
 27 0 94 +17 26 0 38 103 30 31 42 9 0 98 +17 44 116 93 95 94 31 103 27 0 26 -16
 27 14 229 ?103 9 129 124 0 0 1 81 6 229 116 80 27 230 0 155 116 231 232 233 234
 235 236 81 2 230 99 11 27 237 229 238 210 239 240 81 6 155 115 80 42 0 0 25 229
 0 0 0 241 242 243 81 6 116 117 80 44 0 0 229 113 0 0 0 244 245 246 83 6 231 444
0892098500625e-31 0 20 0 0 35527136788005e-28 83 2 232 0 20 83 2 233 0 0 83 4 23
4 -1.414213562373094 1.414213562373094 -15.55634918610405 -12.72792206135786 82
 1 235 22550 82 1 236 24 83 4 244 0 0 -14.14213562373094 14.14213562373094 82 1
 245 22553 82 1 246 27 81 6 25 114 80 9 238 0 37 155 247 248 249 250 251 252 83
 4 241 1.414213562373094 1.414213562373094 0 0 82 1 242 22553 82 1 243 28 81 2 2
38 98 11 9 253 25 254 230 255 256 81 6 37 113 80 30 0 0 209 25 0 0 0 257 258 259
 83 6 247 2 0 20 4440892098500625e-31 0 20 83 2 248 0 2 83 2 249 0 0 83 4 250 0
 0 -1.414213562373094 1.414213562373094 82 1 251 22550 82 1 252 24 81 6 209 112
 80 41 201 0 0 37 260 261 262 263 264 265 83 4 257 0 0 -14.14213562373094 -14.14
213562373094 82 1 258 22553 82 1 259 24 16 41 12 209 ?40 129 128 266 0 0 1 83 6
 260 2 4440892098500625e-31 20 2 0 35527136788005e-28 83 2 261 0 20 83 2 262 0 0
 83 4 263 -1.414213562373094 1.414213562373094 -15.55634918610405 -12.7279220613
5786 82 1 264 22550 82 1 265 25 30 266 73 0 41 0 28 0 +2 0 20 0 0 -1 30 28 74 0
 9 266 124 0 +2 0 20 -1 0 0 81 3 253 47 33 9 0 238 73 237 267 268 0 81 2 254 97
 11 18 269 270 271 238 272 273 84 6 255 F50.E982 1 256 60 14 18 29 270 ?0 154 88
 4 5 +0 0 0 154 24 81 3 269 63 33 18 0 254 274 275 276 277 0 81 1 270 141 143 18
 254 0 278 0 0 81 2 271 96 11 154 274 278 279 254 280 281 84 7 272 F50.F2982 1 2
73 55 14 154 28 278 ?18 96 153 4 19 -0 0 18 96 24 81 3 274 62 33 154 0 271 282 2
69 283 284 0 81 1 278 140 143 154 271 0 285 270 0 81 2 279 95 11 96 282 285 286
 271 287 288 84 7 280 F50.F2882 1 281 58 14 96 27 285 ?154 86 93 4 289 +0 0 154
 86 24 81 3 282 61 33 96 0 279 290 274 291 292 0 81 1 285 139 143 96 279 0 293 2
78 0 81 2 286 94 11 86 290 293 294 279 295 296 84 7 287 F50.F2782 1 288 57 14 86
 26 293 ?96 166 67 4 297 +0 0 96 166 24 81 3 290 60 33 86 0 286 298 282 299 300
 0 81 1 293 138 143 86 286 0 301 285 0 81 2 294 93 11 166 298 301 302 286 303 30
4 84 7 295 F50.F2682 1 296 56 14 166 25 301 ?86 16 165 4 305 +0 0 86 16 24 81 3
 298 59 33 166 0 294 306 290 307 308 0 81 1 301 137 143 166 294 0 309 293 0 81 2
 302 92 11 16 306 309 0 294 310 311 84 7 303 F50.F2582 1 304 59 14 16 24 309 ?16
6 0 38 4 312 +0 0 166 0 24 81 3 306 58 33 16 0 302 313 298 314 315 0 81 1 309 13
6 143 16 302 0 0 301 0 84 7 310 F50.F2482 1 311 54 80 1 143 316 317 8030 1 1 1 1
 1 1 1 1 0 FFFFTFFFFFFFFF3 79 30 317 SDL/TYSA_INCREMENTAL_FACETTING80 3 33 318 3
19 9000 0 0 0 0 3 6 0 0 0 TFTFTFTTFFFFFF3 1 2 81 3 313 57 33 20 0 105 145 306 32
0 321 0 84 3 314 F2482 1 315 1 81 2 105 107 11 20 313 104 115 322 323 324 81 3 1
45 56 33 99 0 136 206 313 325 326 0 84 3 320 E1982 1 321 12 81 3 206 55 33 79 0
 322 200 145 327 328 0 84 3 325 E1882 1 326 11 81 2 322 108 11 79 206 81 105 13
 329 330 84 3 327 E1782 1 328 10 81 6 81 130 80 79 322 0 157 76 331 332 333 334
 335 336 81 2 13 109 11 91 337 133 322 2 338 339 84 7 329 F50.E1782 1 330 65 81
 3 337 52 33 91 0 13 217 187 340 341 0 84 7 338 F50.E1482 1 339 67 81 3 217 51 3
3 129 0 210 213 337 342 343 0 81 3 187 53 33 71 0 147 337 200 344 345 0 84 3 340
 E1482 1 341 7 84 3 344 E1582 1 345 8 81 2 210 100 11 129 217 131 230 201 346 34
7 84 3 342 E1382 1 343 6 81 6 131 122 80 129 210 0 167 161 348 349 350 351 352 3
53 84 7 346 F50.E1382 1 347 71 83 6 348 2 2 20 2 4440892098500625e-31 20 83 2 34
9 0 2 83 2 350 0 0 83 4 351 0 0 -1.414213562373094 1.414213562373094 82 1 352 22
550 82 1 353 25 83 6 331 0 2 0 2 2 0 83 2 332 0 2 83 2 333 0 0 83 4 334 1.414213
562373094 -1.414213562373094 2.82842712474619 0 82 1 335 22550 82 1 336 29 81 2
 115 106 11 101 216 113 147 105 354 355 84 7 323 F50.E1982 1 324 61 81 3 216 49
 33 101 0 115 237 213 356 357 0 84 7 354 F50.E1182 1 355 69 81 3 237 48 33 27 0
 230 253 216 358 359 0 84 3 356 E1182 1 357 4 84 3 358 E1082 1 359 3 79 14 319 d
sRefAttName.250 312 85 0 16 0 305 0 +2 0 20 0 -1 0 .707106781186548 0 .707106781
186548 13 24 3 0 0 0 0 0 0 8 16 50 305 86 0 166 312 297 0 +2 2 20 1 0 0 0 .70710
6781186548 .707106781186548 50 297 87 0 86 305 289 0 +0 2 20 0 1 0 .707106781186
548 0 .707106781186548 50 289 88 0 96 297 19 0 +0 0 20 -1 0 0 0 .707106781186548
 .707106781186548 50 19 89 0 154 289 5 0 +0 0 20 0 0 -1 .707106781186548 .707106
781186548 0 84 3 307 F2582 1 308 2 84 3 299 F2682 1 300 3 84 3 291 F2782 1 292 4
 84 3 283 F2882 1 284 5 81 3 275 64 33 1 360 12 269 0 361 362 0 84 3 276 F2982 1
 277 6 81 1 360 37 363 1 0 275 0 0 364 81 1 12 110 365 1 275 2 0 0 366 84 3 361
 B3082 1 362 1 80 1 365 11 367 9000 0 0 0 0 3 6 0 0 0 FFTFFFFFFFFFFF1 82 1 366 0
 79 13 367 BodyAttrDef.380 1 363 368 369 8017 0 0 0 0 0 0 0 0 0 TTTTTTTTTTTTTF3
 84 6 364 Part 179 13 369 SDL/TYSA_NAME81 3 73 46 33 41 0 201 63 253 370 371 0 8
4 2 267 E982 1 268 2 84 2 370 E882 1 371 1 84 7 239 F50.E1082 1 240 62 84 3 218
 E1282 1 219 5 84 6 211 F50.E882 1 212 63 84 3 207 E1682 1 208 9 79 18 205 Ansys
ParaAttrDef.284 7 188 F50.E1582 1 189 64 83 6 175 2 2 0 2 0 0 83 2 176 0 2 83 2
 177 0 0 83 4 178 2.82842712474619 0 1.414213562373094 1.414213562373094 82 1 17
9 22550 82 1 180 29 83 4 168 0 0 -14.14213562373094 -14.14213562373094 82 1 169
 22553 82 1 170 25 83 4 162 2.82842712474619 0 1.414213562373094 1.4142135623730
94 82 1 163 22553 82 1 164 28 83 4 158 1.414213562373094 -1.414213562373094 2.82
842712474619 0 82 1 159 22553 82 1 160 28 84 7 148 F50.E1882 1 149 68 79 26 144
 SDL/TYSA_FACET_VERTEX_DATA83 6 118 2 0 0 0 0 0 83 2 119 0 2 83 2 120 0 0 83 4 1
21 1.414213562373094 1.414213562373094 0 0 82 1 122 22550 82 1 123 29 81 6 97 13
5 80 94 0 0 104 0 0 0 0 372 373 374 83 6 107 0 0 0 0 2 0 83 2 108 0 2 83 2 109 0
 0 83 4 110 0 0 1.414213562373094 -1.414213562373094 82 1 111 22550 82 1 112 29
 83 4 372 -14.14213562373094 14.14213562373094 -12.72792206135786 15.55634918610
405 82 1 373 22553 82 1 374 27 83 4 83 -14.14213562373094 14.14213562373094 -12.
72792206135786 15.55634918610405 82 1 84 22553 82 1 85 26 84 3 74 V2382 1 75 8 8
1 3 58 43 33 57 0 0 55 61 375 376 0 84 3 64 V2282 1 65 7 81 3 55 42 33 49 0 0 52
 58 377 378 0 84 3 375 V2182 1 376 6 81 3 52 41 33 45 0 0 43 55 379 380 0 84 3 3
77 V2082 1 378 5 81 3 43 40 33 31 0 0 34 52 381 382 0 84 2 379 V782 1 380 4 81 3
 34 39 33 48 0 0 29 43 383 384 0 84 2 381 V682 1 382 3 84 2 383 V582 1 384 2 84
 2 35 V482 1 36 1 19 17 1 0 1 0 8 4 S74 20 15 6 0 360 275 2 12 97 270 0 0 0 0 0
 0 0 0 0 0 0 0 0 0 84 5 14 F50.B1 0
