300 0 1 0
30 SolidWorks-Sat-Convertor - 1.0 11 ACIS 3.0 NT 24 Wed Apr 08 11:11:59 1998
1000 9.999999999999999500E-007 1.000000000000000000E-010
-0 body $-1 $15 $-1 $1 #
-1 transform $-1 1.000000000000000000 0.0000000000000000000 0.0000000000000000000 0.0000000000000000000 1.000000000000000000 0.0000000000000000000 0.0000000000000000000 0.0000000000000000000 1.000000000000000000 0.0000000000000000000 0.0000000000000000000 0.0000000000000000000 1.000000000000000000 no_rotate no_reflect no_shear #
-2 coedge $-1 $6 $21 $74 $9 1 $24 $-1 #
-3 edge $-1 $70 $72 $27 $43 forward  #
-4 face $-1 $8 $29 $58 $-1 $37 forward single  #
-5 coedge $-1 $78 $85 $22 $31 1 $71 $-1 #
-6 coedge $-1 $14 $2 $78 $18 0 $24 $-1 #
-7 coedge $-1 $11 $84 $33 $76 0 $34 $-1 #
-8 face $-1 $13 $34 $58 $-1 $38 forward single  #
-9 edge $-1 $20 $23 $74 $47 forward  #
-10 edge $-1 $70 $35 $84 $48 forward  #
-11 coedge $-1 $81 $7 $28 $19 1 $34 $-1 #
-12 coedge $-1 $17 $36 $21 $64 0 $75 $-1 #
-13 face $-1 $16 $63 $58 $-1 $39 forward single  #
-14 coedge $-1 $21 $6 $73 $30 0 $24 $-1 #
-15 lump $-1 $-1 $58 $0 #
-16 face $-1 $25 $71 $58 $-1 $40 reversed single  #
-17 coedge $-1 $28 $12 $46 $65 0 $75 $-1 #
-18 edge $-1 $20 $26 $6 $49 forward  #
-19 edge $-1 $72 $44 $28 $50 forward  #
-20 vertex $-1 $79 $59 #
-21 coedge $-1 $2 $14 $12 $64 1 $24 $-1 #
-22 coedge $-1 $27 $73 $5 $31 0 $63 $-1 #
-23 vertex $-1 $82 $60 #
-24 loop $-1 $-1 $2 $83 #
-25 face $-1 $-1 $75 $58 $-1 $41 forward single  #
-26 vertex $-1 $31 $61 #
-27 coedge $-1 $46 $22 $81 $3 0 $63 $-1 #
-28 coedge $-1 $36 $17 $11 $19 0 $75 $-1 #
-29 loop $-1 $-1 $33 $4 #
-30 edge $-1 $26 $32 $14 $51 forward  #
-31 edge $-1 $26 $70 $22 $52 forward  #
-32 vertex $-1 $65 $62 #
-33 coedge $-1 $45 $77 $7 $76 1 $29 $-1 #
-34 loop $-1 $-1 $81 $8 #
-35 vertex $-1 $79 $66 #
-36 coedge $-1 $12 $28 $77 $82 0 $75 $-1 #
-37 plane-surface $-1 2.000000000000000000 2.000000000000000000 20.00000000000000000 1.000000000000000000 0.0000000000000000000 0.0000000000000000000 0.0000000000000000000 0.0000000000000000000 -1.000000000000000000 forward_v I I I I #
-38 plane-surface $-1 0.0000000000000000000 2.000000000000000000 20.00000000000000000 0.0000000000000000000 1.000000000000000000 0.0000000000000000000 0.0000000000000000000 0.0000000000000000000 1.000000000000000000 forward_v I I I I #
-39 plane-surface $-1 0.0000000000000000000 0.0000000000000000000 20.00000000000000000 -1.000000000000000000 0.0000000000000000000 0.0000000000000000000 0.0000000000000000000 0.0000000000000000000 1.000000000000000000 forward_v I I I I #
-40 plane-surface $-1 0.0000000000000000000 0.0000000000000000000 20.00000000000000000 0.0000000000000000000 0.0000000000000000000 -1.000000000000000000 -1.000000000000000000 0.0000000000000000000 0.0000000000000000000 forward_v I I I I #
-41 plane-surface $-1 0.0000000000000000000 0.0000000000000000000 0.0000000000000000000 0.0000000000000000000 0.0000000000000000000 -1.000000000000000000 -1.000000000000000000 0.0000000000000000000 0.0000000000000000000 forward_v I I I I #
-42 plane-surface $-1 2.000000000000000000 0.0000000000000000000 20.00000000000000000 0.0000000000000000000 -1.000000000000000000 0.0000000000000000000 0.0000000000000000000 0.0000000000000000000 -1.000000000000000000 forward_v I I I I #
-43 straight-curve $-1 0.0000000000000000000 2.000000000000000000 20.00000000000000000 0.0000000000000000000 0.0000000000000000000 -1.000000000000000000 I I #
-44 vertex $-1 $82 $67 #
-45 coedge $-1 $74 $33 $80 $79 0 $29 $-1 #
-46 coedge $-1 $73 $27 $17 $65 1 $63 $-1 #
-47 straight-curve $-1 2.000000000000000000 0.0000000000000000000 20.00000000000000000 0.0000000000000000000 0.0000000000000000000 -1.000000000000000000 I I #
-48 straight-curve $-1 0.0000000000000000000 2.000000000000000000 20.00000000000000000 1.000000000000000000 0.0000000000000000000 0.0000000000000000000 I I #
-49 straight-curve $-1 2.000000000000000000 0.0000000000000000000 20.00000000000000000 -1.000000000000000000 0.0000000000000000000 0.0000000000000000000 I I #
-50 straight-curve $-1 0.0000000000000000000 2.000000000000000000 0.0000000000000000000 1.000000000000000000 0.0000000000000000000 0.0000000000000000000 I I #
-51 straight-curve $-1 0.0000000000000000000 0.0000000000000000000 20.00000000000000000 0.0000000000000000000 0.0000000000000000000 -1.000000000000000000 I I #
-52 straight-curve $-1 0.0000000000000000000 0.0000000000000000000 20.00000000000000000 0.0000000000000000000 1.000000000000000000 0.0000000000000000000 I I #
-53 straight-curve $-1 2.000000000000000000 0.0000000000000000000 0.0000000000000000000 -1.000000000000000000 0.0000000000000000000 0.0000000000000000000 I I #
-54 straight-curve $-1 0.0000000000000000000 0.0000000000000000000 0.0000000000000000000 0.0000000000000000000 1.000000000000000000 0.0000000000000000000 I I #
-55 straight-curve $-1 2.000000000000000000 2.000000000000000000 20.00000000000000000 0.0000000000000000000 0.0000000000000000000 -1.000000000000000000 I I #
-56 straight-curve $-1 2.000000000000000000 2.000000000000000000 20.00000000000000000 0.0000000000000000000 -1.000000000000000000 0.0000000000000000000 I I #
-57 straight-curve $-1 2.000000000000000000 2.000000000000000000 0.0000000000000000000 0.0000000000000000000 -1.000000000000000000 0.0000000000000000000 I I #
-58 shell $-1 $-1 $-1 $83 $-1 $15 #
-59 point $-1 2.000000000000000000 0.0000000000000000000 20.00000000000000000 #
-60 point $-1 2.000000000000000000 0.0000000000000000000 0.0000000000000000000 #
-61 point $-1 0.0000000000000000000 0.0000000000000000000 20.00000000000000000 #
-62 point $-1 0.0000000000000000000 0.0000000000000000000 0.0000000000000000000 #
-63 loop $-1 $-1 $22 $13 #
-64 edge $-1 $23 $32 $12 $53 forward  #
-65 edge $-1 $32 $72 $17 $54 forward  #
-66 point $-1 2.000000000000000000 2.000000000000000000 20.00000000000000000 #
-67 point $-1 2.000000000000000000 2.000000000000000000 0.0000000000000000000 #
-68 point $-1 0.0000000000000000000 2.000000000000000000 20.00000000000000000 #
-69 point $-1 0.0000000000000000000 2.000000000000000000 0.0000000000000000000 #
-70 vertex $-1 $31 $68 #
-71 loop $-1 $-1 $78 $16 #
-72 vertex $-1 $65 $69 #
-73 coedge $-1 $22 $46 $14 $30 1 $63 $-1 #
-74 coedge $-1 $77 $45 $2 $9 0 $29 $-1 #
-75 loop $-1 $-1 $12 $25 #
-76 edge $-1 $35 $44 $7 $55 forward  #
-77 coedge $-1 $33 $74 $36 $82 1 $29 $-1 #
-78 coedge $-1 $80 $5 $6 $18 1 $71 $-1 #
-79 edge $-1 $35 $20 $45 $56 forward  #
-80 coedge $-1 $85 $78 $45 $79 1 $71 $-1 #
-81 coedge $-1 $84 $11 $27 $3 1 $34 $-1 #
-82 edge $-1 $44 $23 $36 $57 forward  #
-83 face $-1 $4 $24 $58 $-1 $42 forward single  #
-84 coedge $-1 $7 $81 $85 $10 0 $34 $-1 #
-85 coedge $-1 $5 $80 $84 $10 1 $71 $-1 #
End-of-ACIS-data